<svg aria-hidden="true" style="position:absolute;width:0;height:0;overflow:hidden" xmlns="http://www.w3.org/2000/svg">
  <defs>
    <symbol id="star" viewBox="0 0 32 32">
      <path stroke-width="2.4" d="M12.4 9.394 16 2.572l3.6 6.822a2.2 2.2 0 0 0 1.571 1.141l7.601 1.315-5.376 5.532a2.2 2.2 0 0 0-.6 1.846l1.098 7.635-6.922-3.404a2.199 2.199 0 0 0-1.941 0l-6.922 3.404 1.098-7.635a2.2 2.2 0 0 0-.6-1.846L3.231 11.85l7.601-1.315a2.202 2.202 0 0 0 1.571-1.141zm16.635 2.185zM7.767 27.031z"/>
    </symbol>
    <symbol id="close" viewBox="0 0 32 32">
      <path stroke="#101828" stroke-linejoin="round" stroke-linecap="round" stroke-miterlimit="4" stroke-width="3" d="M24 8l-16 16"></path>
      <path stroke="#101828" stroke-linejoin="round" stroke-linecap="round" stroke-miterlimit="4" stroke-width="3" d="M8 8l16 16"></path>
    </symbol>
    <symbol id="heart" viewBox="0 0 32 32">
      <path stroke-linejoin="round" stroke-linecap="round" stroke-width="3.067" d="M27.787 6.147a7.326 7.326 0 0 0-10.373 0L16.001 7.56l-1.413-1.413a7.333 7.333 0 0 0-10.374 0 7.333 7.333 0 0 0 0 10.374l11.787 11.787 11.787-11.787a7.345 7.345 0 0 0 2.15-5.187 7.33 7.33 0 0 0-2.15-5.187z"/>
    </symbol>
    <symbol id="icon-ac" viewBox="0 0 40 32">
      <path d="M19.38 0c-1.876 0-3.695.641-5.146 1.812s-2.446 2.801-2.814 4.613l-.145.719a1.208 1.208 0 0 0 .164.947 1.25 1.25 0 0 0 1.304.54 1.238 1.238 0 0 0 .98-1.006l.148-.716c.277-1.343 1.051-2.537 2.171-3.351a5.685 5.685 0 0 1 7.498.733 5.483 5.483 0 0 1 1.459 3.706c0 1.469-.593 2.878-1.647 3.917s-2.486 1.623-3.978 1.624H1.249c-.332 0-.649.13-.884.36a1.217 1.217 0 0 0 0 1.74c.234.231.552.36.884.36h18.125c2.12-.051 4.136-.916 5.617-2.41s2.311-3.499 2.311-5.587-.828-4.094-2.308-5.589a8.191 8.191 0 0 0-5.616-2.414zm14.37 11.077c-1.658 0-3.247.648-4.419 1.802S27.5 15.598 27.5 17.23c0 .326.132.639.366.87s.552.36.884.36.649-.13.884-.36a1.22 1.22 0 0 0 .366-.87c0-.73.22-1.444.632-2.051s.998-1.08 1.683-1.36c.685-.279 1.439-.353 2.167-.21s1.396.494 1.92 1.011a3.65 3.65 0 0 1 .813 4.024 3.709 3.709 0 0 1-1.381 1.657 3.79 3.79 0 0 1-2.083.622h-32.5c-.332 0-.649.13-.884.361a1.22 1.22 0 0 0 0 1.74c.234.23.552.36.884.36h24.375c.829.002 1.623.327 2.208.906s.913 1.361.911 2.177c-.002.816-.333 1.598-.92 2.174s-1.383.898-2.212.897c-.746.001-1.469-.259-2.04-.733s-.952-1.132-1.078-1.856l-.012-.074a1.235 1.235 0 0 0-.947-1.031 1.26 1.26 0 0 0-1.319.497 1.216 1.216 0 0 0-.199.939l.013.074c.222 1.299.905 2.479 1.927 3.33s2.317 1.317 3.655 1.317c1.493.001 2.926-.582 3.983-1.621s1.652-2.447 1.655-3.918c0-1.14-.35-2.198-.947-3.077h3.447c1.658 0 3.247-.648 4.419-1.802s1.831-2.719 1.831-4.351-.658-3.197-1.831-4.351a6.3 6.3 0 0 0-4.419-1.802z"/>
      <path d="m19.38 0 .247-9.997-.125-.003h-.125l.002 10zm-7.96 6.425L1.621 4.431l-.003.016 9.803 1.978zm-.145.718 9.724 2.331.042-.176.036-.178-9.803-1.978zm2.45.483L3.931 5.609l-.038.184-.031.185 9.863 1.647zm.148-.716zM25 7.998h10v-.025l-10 .025zm-5.625 5.54v10h.004l-.004-10zM0 14.769zM19.375 16v10h.121l.121-.003L19.376 16zM30 17.231zM0 22.154zm25.625 1.231.02-10h-.02v10zm-.013 6.153.02-10h-.027l.007 10zm-3.117-2.589-9.86 1.669.003.017.003.017 9.854-1.703zm-.012-.074-9.907 1.363.021.153.026.152 9.86-1.669zm-2.466.404 9.86-1.669-.025-.149-.03-.148-9.805 1.966zm.013.074-9.86 1.669.003.017 9.857-1.686zM25.612 32l.004-10h-.006l.002 10zm5.638-5.538 10 .018v-.018h-10zm-.947-3.077v-10H11.411l10.622 15.623 8.27-5.623zM19.378-10A18.196 18.196 0 0 0 7.954-5.97L20.515 9.593c-.339.273-.74.406-1.133.406l-.004-20zM7.953-5.97A17.973 17.973 0 0 0 1.62 4.431l19.598 3.988c-.1.49-.362.899-.704 1.175L7.953-5.969zM1.617 4.447l-.145.719 19.605 3.955.145-.719L1.617 4.447zm-.066.365a11.209 11.209 0 0 0-.143 4.534l19.705-3.425a8.788 8.788 0 0 1-.112 3.553L1.552 4.811zm-.144 4.534a11.218 11.218 0 0 0 1.656 4.207L19.816 2.628a8.768 8.768 0 0 1 1.296 3.293L1.407 9.346zm1.656 4.207a11.228 11.228 0 0 0 3.148 3.19L17.363.141a8.753 8.753 0 0 1 2.453 2.487L3.063 13.553zm3.148 3.191a11.266 11.266 0 0 0 4.103 1.701l3.864-19.623a8.75 8.75 0 0 1 3.185 1.32L6.211 16.744zm4.103 1.701c1.461.288 2.966.283 4.425-.014l-3.99-19.598a8.737 8.737 0 0 1 3.429-.011l-3.864 19.623zm4.426-.015a11.26 11.26 0 0 0 4.093-1.727L7.574.173a8.734 8.734 0 0 1 3.177-1.341l3.99 19.598zm4.092-1.727a11.23 11.23 0 0 0 3.127-3.211L5.135 2.677A8.756 8.756 0 0 1 7.572.174l11.259 16.53zm3.128-3.211a11.219 11.219 0 0 0 1.629-4.219L3.862 5.978a8.787 8.787 0 0 1 1.274-3.302L21.96 13.491zm1.56-3.849.147-.716L4.078 4.893l-.147.716L23.52 9.643zm.146-.713a4.48 4.48 0 0 1-1.745 2.719L10.165-4.531A15.524 15.524 0 0 0 4.078 4.89l19.587 4.041zm-1.745 2.719c-.87.632-1.924.91-2.959.808l1.946-19.905a15.685 15.685 0 0 0-10.743 2.916l11.756 16.18zm-2.959.808a4.347 4.347 0 0 1-2.773-1.387L30.893-2.487a15.648 15.648 0 0 0-9.985-4.961l-1.946 19.905zm-2.773-1.387A4.513 4.513 0 0 1 15 8.022l20-.05a15.49 15.49 0 0 0-4.107-10.46L16.189 11.069zM15 7.998c0-1.233.499-2.383 1.335-3.207L30.37 19.039A15.498 15.498 0 0 0 35 7.998H15zm1.335-3.207a4.324 4.324 0 0 1 3.036-1.252l.009 20a15.673 15.673 0 0 0 10.991-4.5L16.336 4.791zm3.04-1.253H1.25v20h18.125v-20zm-18.125 0a11.258 11.258 0 0 0-7.9 3.235L7.382 21.024a8.74 8.74 0 0 1-6.132 2.514v-20zm-7.9 3.235A11.22 11.22 0 0 0-10 14.769h20c0 2.376-.96 4.623-2.618 6.255L-6.65 6.773zM-10 14.769c0 3.029 1.224 5.902 3.35 7.996L7.382 8.514A8.777 8.777 0 0 1 10 14.769h-20zm3.35 7.996A11.258 11.258 0 0 0 1.25 26V6a8.74 8.74 0 0 1 6.132 2.514L-6.65 22.765zM1.25 26h18.125V6H1.25v20zm18.366-.003a18.192 18.192 0 0 0 12.478-5.367L17.891 6.549a1.809 1.809 0 0 1 1.244-.546l.482 19.994zm12.478-5.367a17.942 17.942 0 0 0 5.21-12.624l-20-.006c0-.571.228-1.088.587-1.45l14.203 14.081zm5.209-12.624a17.937 17.937 0 0 0-5.202-12.628L17.889 9.45A2.065 2.065 0 0 1 17.303 8l20 .006zM32.102-4.622a18.19 18.19 0 0 0-12.474-5.375l-.494 19.994c-.44-.011-.89-.19-1.243-.547L32.103-4.622zm1.648 5.699c-4.26 0-8.376 1.665-11.435 4.677l14.032 14.251a3.7 3.7 0 0 1-2.597 1.072v-20zM22.315 5.754A16.107 16.107 0 0 0 17.5 17.231h20a3.892 3.892 0 0 1-1.153 2.774L22.315 5.754zM17.5 17.231c0 3.029 1.224 5.902 3.35 7.996l14.032-14.251a8.777 8.777 0 0 1 2.618 6.255h-20zm3.35 7.996a11.258 11.258 0 0 0 7.9 3.235v-20a8.74 8.74 0 0 1 6.132 2.514L20.85 25.227zm7.9 3.235c2.934 0 5.779-1.146 7.9-3.235L22.618 10.976a8.74 8.74 0 0 1 6.132-2.514v20zm7.9-3.235A11.224 11.224 0 0 0 40 17.231H20c0-2.376.96-4.623 2.618-6.255L36.65 25.227zM40 17.231a6.352 6.352 0 0 1-1.093 3.564L22.358 9.564a13.648 13.648 0 0 0-2.357 7.667h20zm-1.093 3.564a6.259 6.259 0 0 1-2.815 2.284L28.539 4.56a13.735 13.735 0 0 0-6.181 5.004l16.549 11.231zm-2.816 2.284a6.2 6.2 0 0 1-3.532.344l3.844-19.627a13.807 13.807 0 0 0-7.865.764l7.553 18.519zm-3.531.344a6.235 6.235 0 0 1-3.174-1.677L43.418 7.495a13.763 13.763 0 0 0-7.014-3.698L32.56 23.424zm-3.174-1.677a6.337 6.337 0 0 1-1.76-3.255l19.604-3.96a13.681 13.681 0 0 0-3.812-7.036L29.386 21.746zm-1.76-3.255a6.365 6.365 0 0 1 .371-3.725l18.435 7.755a13.642 13.642 0 0 0 .798-7.991l-19.604 3.96zm.371-3.725a6.29 6.29 0 0 1 2.34-2.819l10.992 16.708a13.703 13.703 0 0 0 5.103-6.134l-18.435-7.755zm2.34-2.819a6.213 6.213 0 0 1 3.413-1.024v20c2.685 0 5.323-.783 7.58-2.268L30.338 11.947zm3.413-1.024H1.25v20h32.5v-20zm-32.5 0a11.258 11.258 0 0 0-7.9 3.235L7.382 28.409a8.74 8.74 0 0 1-6.132 2.514v-20zm-7.9 3.235A11.22 11.22 0 0 0-10 22.154h20c0 2.376-.96 4.623-2.618 6.255L-6.65 14.158zM-10 22.154c0 3.029 1.224 5.902 3.35 7.996L7.382 15.899A8.777 8.777 0 0 1 10 22.154h-20zm3.35 7.996a11.258 11.258 0 0 0 7.9 3.235v-20a8.74 8.74 0 0 1 6.132 2.514L-6.65 30.15zm7.9 3.235h24.375v-20H1.25v20zm24.355 0a6.848 6.848 0 0 1-4.803-1.983l14.061-14.223a13.15 13.15 0 0 0-9.219-3.794l-.039 20zm-4.802-1.983a6.946 6.946 0 0 1-2.059-4.954l20 .041a13.05 13.05 0 0 0-3.881-9.309L20.802 31.403zm-2.059-4.955a6.947 6.947 0 0 1 2.078-4.945l14.004 14.279a13.053 13.053 0 0 0 3.918-9.293l-20-.041zm2.078-4.945a6.852 6.852 0 0 1 4.81-1.964l-.039 20a13.15 13.15 0 0 0 9.233-3.757L20.822 21.502zm4.783-1.964a6.813 6.813 0 0 1 4.357 1.574L17.183 36.497a13.192 13.192 0 0 0 8.437 3.041l-.014-20zm4.357 1.575a6.9 6.9 0 0 1 2.387 4.133l-19.708 3.405a13.099 13.099 0 0 0 4.542 7.846l12.779-15.385zm2.393 4.167-.013-.074-19.719 3.338.012.074 19.72-3.338zm.034.232a11.225 11.225 0 0 0-1.502-4.255L13.751 31.57a8.788 8.788 0 0 1-1.175-3.331l19.813-2.727zm-1.502-4.255a11.253 11.253 0 0 0-3.024-3.297L16.108 34.141a8.756 8.756 0 0 1-2.357-2.571l17.136-10.313zm-3.024-3.298a11.255 11.255 0 0 0-4.03-1.848l-4.597 19.465a8.736 8.736 0 0 1-3.128-1.435L27.863 17.96zm-4.029-1.848a11.26 11.26 0 0 0-4.411-.154l3.232 19.737a8.726 8.726 0 0 1-3.418-.119l4.597-19.465zm-4.411-.153c-1.466.24-2.875.768-4.144 1.56L25.87 34.484a8.733 8.733 0 0 1-3.215 1.211l-3.232-19.737zm-4.144 1.56a11.239 11.239 0 0 0-3.243 3.07l16.361 11.503a8.736 8.736 0 0 1-2.527 2.392L15.279 17.517zm-3.243 3.07a11.208 11.208 0 0 0-1.799 4.132l19.567 4.138a8.782 8.782 0 0 1-1.407 3.233L12.036 20.588zm-1.8 4.133a11.231 11.231 0 0 0-.024 4.525l19.609-3.933a8.786 8.786 0 0 1-.018 3.546l-19.567-4.138zm-.078 4.227.012.074 19.72-3.338-.013-.074-19.719 3.338zm.015.091a15.558 15.558 0 0 0 5.386 9.33l12.796-15.371a4.447 4.447 0 0 1 1.532 2.669l-19.714 3.372zm5.386 9.329A15.714 15.714 0 0 0 25.614 42l-.004-20a4.29 4.29 0 0 1 2.744.997L15.558 38.368zM25.608 42a15.681 15.681 0 0 0 10.995-4.487L22.587 23.246A4.32 4.32 0 0 1 25.617 22l-.009 20zm10.995-4.487A15.507 15.507 0 0 0 41.25 26.48l-20-.036a4.497 4.497 0 0 1 1.337-3.198l14.016 14.267zm4.647-11.051c0-3.221-.996-6.226-2.678-8.7L22.033 29.007a4.547 4.547 0 0 1-.783-2.546h20zm-10.947 6.923h3.447v-20h-3.447v20zm3.447 0c4.26 0 8.376-1.665 11.435-4.677L31.153 14.457a3.7 3.7 0 0 1 2.597-1.072v20zm11.435-4.677A16.107 16.107 0 0 0 50 17.231H30c0-1.071.433-2.065 1.153-2.774l14.032 14.251zM50 17.231c0-4.335-1.75-8.46-4.815-11.477L31.153 20.005A3.894 3.894 0 0 1 30 17.231h20zM45.185 5.754A16.299 16.299 0 0 0 33.75 1.077v20a3.7 3.7 0 0 1-2.597-1.072L45.185 5.754z"/>
    </symbol>
    <symbol id="icon-adult" viewBox="0 0 46 32">
      <path d="M12.952 27.619H6.666c-.381 0-.571-.19-.762-.381s-.381-.571-.191-.952c1.143-3.238 4-5.143 7.238-5.143 4 0 7.238-3.429 7.238-7.429s-3.238-7.81-7.238-7.81-7.238 3.429-7.238 7.619c0 1.905.762 3.809 1.905 5.143-2.476 1.333-4.381 3.429-5.524 6.286-.381 1.333-.19 3.048.762 4.381s2.286 2.095 3.81 2.095h6.286c1.143 0 1.905-.762 1.905-1.905s-.762-1.905-1.905-1.905zM9.524 13.524c0-2.095 1.524-3.619 3.429-3.619s3.429 1.714 3.429 3.619c0 2.095-1.524 3.619-3.429 3.619s-3.429-1.714-3.429-3.619z"/>
      <path d="M43.619 23.81c-1.333-3.619-4-6.286-7.048-7.81 1.714-1.524 2.666-3.81 2.666-6.476 0-4.952-3.809-8.952-8.381-8.952s-8.381 4-8.381 8.952c0 2.476.952 4.762 2.667 6.476-3.048 1.524-5.714 4.19-7.048 7.81-.952 1.714-.571 3.619.381 5.143s2.667 2.286 4.381 2.286h15.809c1.714 0 3.429-.952 4.381-2.286 1.143-1.524 1.333-3.429.571-5.143zM26.095 9.714c0-2.857 2.095-5.143 4.571-5.143s4.571 2.286 4.571 5.143-2.095 5.143-4.571 5.143c-2.476 0-4.571-2.476-4.571-5.143zm13.714 17.143c-.19.19-.571.762-1.143.762H22.857c-.762 0-1.143-.571-1.143-.762-.191-.19-.571-.952-.19-1.714 1.524-4 5.333-6.667 9.333-6.667s7.809 2.667 9.333 6.667c.19.762-.19 1.524-.381 1.714z"/>
    </symbol>
    <symbol id="icon-airConditioner" viewBox="0 0 32 32">
      <path stroke-linejoin="round" stroke-linecap="round" stroke-width="2.4" d="M28.571 1.143H3.428a2.287 2.287 0 0 0-2.285 2.285v11.429a2.287 2.287 0 0 0 2.285 2.285h25.143a2.287 2.287 0 0 0 2.286-2.285V3.428a2.283 2.283 0 0 0-2.286-2.285z"/>
      <path stroke-linejoin="round" stroke-linecap="round" stroke-width="2.4" d="M25.143 17.143v-4.571a2.283 2.283 0 0 0-2.286-2.285H9.143a2.287 2.287 0 0 0-2.285 2.285v4.571M5.714 28.572h.229a3.2 3.2 0 0 0 3.2-3.2v-2.514m17.143 5.714h-.229a3.2 3.2 0 0 1-3.2-3.2v-2.514M16 30.857v-8"/>
    </symbol>
    <symbol id="icon-alcoveType" viewBox="0 0 46 32">
      <path d="M2.608 1.8h12.409c.105 0 .203-.04.278-.112L16.487.525a1.845 1.845 0 0 1 1.297-.524h18.817c.876 0 1.69.425 2.176 1.136l2.255 3.3c.32.468.349 1.067.077 1.564s-.8.805-1.377.805h-9.698v.956h4.967c1.317 0 2.501.763 3.018 1.945l2.908 6.65 2.548.994c1.36.531 2.24 1.797 2.24 3.227v6.158c0 .918-.766 1.666-1.708 1.666h-2.964c-.345 2.039-2.164 3.599-4.35 3.599s-4.005-1.561-4.35-3.599H16.14c-.345 2.039-2.164 3.599-4.35 3.599s-4.005-1.561-4.35-3.599H1.519c-.837 0-1.518-.664-1.518-1.481V4.345c0-1.403 1.17-2.544 2.608-2.544zm34.084 28.794c1.637 0 2.969-1.299 2.969-2.896s-1.332-2.896-2.969-2.896c-1.637 0-2.969 1.299-2.969 2.896s1.332 2.896 2.969 2.896zm-6.658-3.599h2.307l.02-.105.014-.071c.012-.055.025-.11.039-.164.003-.011.005-.023.009-.034a3.34 3.34 0 0 1 .057-.195l.019-.056a5.274 5.274 0 0 1 .122-.321l.033-.075c.016-.037.032-.072.05-.108l.038-.075.054-.103.041-.074.059-.101.043-.071.066-.101.044-.065.077-.105.04-.055.109-.135.016-.02c.043-.051.087-.1.132-.148l.043-.044.096-.099.056-.053.09-.084.062-.054.09-.077.066-.052.093-.071a1.22 1.22 0 0 1 .069-.05l.097-.068.069-.046c.034-.023.069-.044.104-.065l.068-.041c.038-.023.077-.044.116-.065l.059-.033.168-.084.013-.006c.061-.029.123-.056.186-.082l.061-.024.13-.05.075-.026.12-.039.082-.024c.039-.011.078-.023.118-.033.028-.007.056-.015.085-.021l.118-.026.087-.018c.04-.007.081-.015.122-.021l.086-.014.128-.016.082-.009.143-.011.07-.005a3.893 3.893 0 0 1 .502.005c.048.003.096.006.143.011.028.002.055.006.082.009l.128.016c.029.004.058.008.087.014.041.006.081.014.122.021l.087.018a4.084 4.084 0 0 1 .321.08l.082.024.12.039.075.026.13.05.061.024c.062.026.125.053.186.082l.013.006c.057.027.112.055.168.084l.059.033.116.065.068.041.104.065.069.046c.033.023.065.044.097.068l.069.05.093.071.066.052c.031.025.061.051.09.077l.062.054.09.084.056.053.096.099.043.044c.045.048.089.098.132.148l.016.02c.037.044.073.089.109.135l.04.055.077.105.044.065.066.101.043.071.059.101.041.074.054.103.038.075.05.108c.011.025.023.049.033.075.017.038.032.077.047.116a2.087 2.087 0 0 1 .075.205l.019.056c.02.064.039.129.056.195l.009.034c.014.055.027.109.039.164l.014.071.02.105h2.963a.263.263 0 0 0 .266-.26v-2.946h-1.124v-1.406h1.124v-1.806c0-.851-.523-1.606-1.333-1.922l-2.697-1.052H30.031v9.392zm0-10.798h9.257l-2.598-5.939a1.84 1.84 0 0 0-1.692-1.09h-4.967v7.03zM11.789 30.594c1.637 0 2.969-1.299 2.969-2.896s-1.332-2.896-2.969-2.896c-.051 0-.102.001-.153.004-1.364.067-2.488 1.038-2.756 2.309a2.812 2.812 0 0 0-.061.583c0 1.597 1.332 2.896 2.969 2.896zM1.441 22.383h1.124v1.406H1.441v3.131c0 .041.035.075.077.075h5.92l.02-.104.014-.072c.012-.054.024-.107.038-.16l.009-.038a4.26 4.26 0 0 1 .056-.193l.02-.058.046-.132.028-.072.046-.114a2.049 2.049 0 0 1 .084-.182l.038-.076.054-.102.042-.074.059-.1a2.156 2.156 0 0 1 .11-.171 1.08 1.08 0 0 1 .044-.066l.076-.104.042-.057.106-.132a3.757 3.757 0 0 1 .15-.171l.043-.045c.032-.033.063-.066.096-.098l.056-.053.089-.083.062-.055c.029-.025.059-.051.09-.075l.066-.053.092-.071.069-.05.096-.067.07-.047c.034-.023.069-.044.103-.065l.069-.042c.038-.023.077-.044.116-.065.02-.011.04-.023.061-.033.055-.029.11-.057.167-.083l.014-.007c.061-.029.123-.056.186-.082l.061-.024.13-.05.076-.026c.039-.014.079-.027.119-.039l.082-.024c.039-.011.078-.023.118-.033.028-.007.056-.015.085-.021l.118-.026.087-.018c.04-.007.081-.015.122-.021l.086-.014.128-.016.082-.009.143-.011.07-.005a3.893 3.893 0 0 1 .502.005c.048.003.096.006.143.011.028.002.055.006.082.009l.128.016c.029.004.058.008.086.014.041.006.081.014.122.021l.087.018a4.084 4.084 0 0 1 .321.08l.082.024c.04.012.08.026.119.039l.076.026.13.05.061.024c.062.026.124.053.186.082l.014.007c.056.026.112.054.167.083l.06.033.116.065.069.042c.035.021.069.042.103.065l.07.047c.032.022.065.044.096.067l.069.05.092.071c.023.017.044.035.066.053.031.025.061.05.09.076l.062.054.09.084.056.053.096.098.043.044c.045.048.089.098.132.148l.017.021c.036.044.073.088.107.134l.042.055.077.105.044.066c.023.033.044.066.066.1l.044.071.059.101.041.074.055.103a2.6 2.6 0 0 1 .087.183 2.343 2.343 0 0 1 .08.191l.028.071c.017.045.032.09.047.135l.019.055c.02.064.039.129.057.195l.007.031c.014.056.028.111.04.168l.013.069.021.106h12.453V6.106c0-.388.323-.703.721-.703h10.419c.018 0 .073 0 .107-.062s.004-.106-.006-.12l-2.255-3.3a1.18 1.18 0 0 0-.977-.51H17.784a.397.397 0 0 0-.278.112l-1.192 1.163a1.845 1.845 0 0 1-1.297.524H2.608c-.643 0-1.167.511-1.167 1.138v18.039z"/>
      <path d="M20.116 7.198h4.558c.921 0 1.67.731 1.67 1.629v15.046a.712.712 0 0 1-.721.703h-6.456a.712.712 0 0 1-.721-.703V8.827c-.001-.899.748-1.629 1.669-1.629zm-.229 15.972h5.015v-8.267h-5.015v8.267zm0-9.673h5.015V8.828a.226.226 0 0 0-.229-.223h-4.558c-.126 0-.229.1-.229.223v4.669h.001zM5.536 7.198h8.814c1.019 0 1.848.809 1.848 1.802v4.1c0 .994-.829 1.802-1.848 1.802H5.535c-1.019 0-1.848-.809-1.848-1.802V9c.001-.994.83-1.802 1.848-1.802zM5.129 13.1c0 .218.182.396.406.396h8.814a.402.402 0 0 0 .406-.396V9a.402.402 0 0 0-.406-.396H5.534A.402.402 0 0 0 5.128 9v4.1h.001z"/>
    </symbol>
    <symbol id="icon-arrow" viewBox="0 0 32 32">
      <path d="M20.943 5.724a1.333 1.333 0 0 1 0 1.886l-8.391 8.391 8.391 8.391a1.333 1.333 0 1 1-1.886 1.886l-9.333-9.333a1.333 1.333 0 0 1 0-1.886l9.333-9.333a1.333 1.333 0 0 1 1.886 0z"/>
    </symbol>
    <symbol id="icon-bed" viewBox="0 0 32 32">
      <path stroke-linejoin="round" stroke-linecap="round" stroke-width="2.24" d="M3 26v-7a4.012 4.012 0 0 1 4-4h18a4.012 4.012 0 0 1 4 4v7m-5-11H6V8.5A2.504 2.504 0 0 1 8.5 6h15A2.504 2.504 0 0 1 26 8.5V15h-2z"/>
      <path stroke-linejoin="round" stroke-linecap="round" stroke-width="2.24" d="M3 26v-.5A1.504 1.504 0 0 1 4.5 24h23a1.504 1.504 0 0 1 1.5 1.5v.5M7 15v-1a2.002 2.002 0 0 1 2-2h5a2.002 2.002 0 0 1 2 2m0 0v1m0-1a2.008 2.008 0 0 1 2-2h5a2.002 2.002 0 0 1 2 2v1"/>
    </symbol>
    <symbol id="icon-calendar" viewBox="0 0 32 32">
      <path stroke-linejoin="round" stroke-linecap="round" stroke-width="2.4" d="M25.333 5.333H6.666A2.667 2.667 0 0 0 3.999 8v18.667a2.667 2.667 0 0 0 2.667 2.667h18.667A2.667 2.667 0 0 0 28 26.667V8a2.667 2.667 0 0 0-2.667-2.667zM21.333 2.667V8M10.667 2.667V8M4 13.333h24"/>
    </symbol>
    <symbol id="icon-cdSystem" viewBox="0 0 32 32">
      <path stroke-width="2.4" d="M16 28c6.627 0 12-5.373 12-12S22.627 4 16 4 4 9.373 4 16s5.373 12 12 12z"/>
      <path stroke-linecap="round" stroke-width="2.4" d="M8.667 16A7.333 7.333 0 0 1 16 8.667"/>
      <path stroke-width="2.4" d="M16 19.333a3.333 3.333 0 1 0 0-6.665 3.333 3.333 0 0 0 0 6.665z"/>
    </symbol>
    <symbol id="icon-engine" viewBox="0 0 32 32">
      <path d="m26.36 9.64.013-.013-4.96-4.96L20 6.08l2.813 2.813a3.324 3.324 0 0 0-1.17 5.464 3.333 3.333 0 0 0 2.357.976c.48 0 .92-.107 1.333-.28v9.613a1.335 1.335 0 0 1-2.277.943 1.335 1.335 0 0 1-.391-.943v-6a2.668 2.668 0 0 0-2.667-2.667h-1.333V6.666a2.668 2.668 0 0 0-2.667-2.667h-8a2.668 2.668 0 0 0-2.667 2.667v21.333h13.333v-10h2v6.667a3.333 3.333 0 1 0 6.667-.001V11.998c0-.92-.373-1.76-.973-2.36zM16 18v7.333H8V16h8v2zm0-4.667H8V6.666h8v6.667zm8 0a1.333 1.333 0 1 1-.002-2.665A1.333 1.333 0 0 1 24 13.333z"/>
    </symbol>
    <symbol id="icon-freezer" viewBox="0 0 32 32">
      <path stroke-linejoin="round" stroke-linecap="round" stroke-width="2.08" d="M23.4 3H8.607a2 2 0 0 0-2 2v20.387a2 2 0 0 0 2 2H23.4a2 2 0 0 0 2-2V5a2 2 0 0 0-2-2z"/>
      <path stroke-linejoin="round" stroke-linecap="round" stroke-width="2.08" d="M6.607 13.127h18.787m-15.081-2.56v-4.04m0 12.913V15.4M8.427 27.387v.7a.911.911 0 0 0 .907.913h1.647a.911.911 0 0 0 .914-.914v-.7m8.205.001v.7a.913.913 0 0 0 .914.914h1.653a.913.913 0 0 0 .914-.914v-.7"/>
    </symbol>
    <symbol id="icon-fullyIntegratedType" viewBox="0 0 46 32">
      <path d="M2.608 1.8h12.409c.105 0 .203-.04.278-.112L16.487.525a1.845 1.845 0 0 1 1.297-.524h18.817c.876 0 1.69.425 2.176 1.136l2.255 3.3c.32.468.349 1.067.077 1.564s-.8.805-1.377.805h-9.698v.956h4.967c1.317 0 2.501.763 3.018 1.945l2.908 6.65 2.548.994c1.36.531 2.24 1.797 2.24 3.227v6.158c0 .918-.766 1.666-1.708 1.666h-2.964c-.345 2.039-2.164 3.599-4.35 3.599s-4.005-1.561-4.35-3.599H16.14c-.345 2.039-2.164 3.599-4.35 3.599s-4.005-1.561-4.35-3.599H1.519c-.837 0-1.518-.664-1.518-1.481V4.345c0-1.403 1.17-2.544 2.608-2.544zm34.084 28.794c1.637 0 2.969-1.299 2.969-2.896s-1.332-2.896-2.969-2.896c-1.637 0-2.969 1.299-2.969 2.896s1.332 2.896 2.969 2.896zm-6.658-3.599h2.307l.02-.105.014-.071c.012-.055.025-.11.039-.164.003-.011.005-.023.009-.034a3.34 3.34 0 0 1 .057-.195l.019-.056a5.274 5.274 0 0 1 .122-.321l.033-.075c.016-.037.032-.072.05-.108l.038-.075.054-.103.041-.074.059-.101.043-.071.066-.101.044-.065.077-.105.04-.055.109-.135.016-.02c.043-.051.087-.1.132-.148l.043-.044.096-.099.056-.053.09-.084.062-.054.09-.077.066-.052.093-.071a1.22 1.22 0 0 1 .069-.05l.097-.068.069-.046c.034-.023.069-.044.104-.065l.068-.041c.038-.023.077-.044.116-.065l.059-.033.168-.084.013-.006c.061-.029.123-.056.186-.082l.061-.024.13-.05.075-.026.12-.039.082-.024c.039-.011.078-.023.118-.033.028-.007.056-.015.085-.021l.118-.026.087-.018c.04-.007.081-.015.122-.021l.086-.014.128-.016.082-.009.143-.011.07-.005a3.893 3.893 0 0 1 .502.005c.048.003.096.006.143.011.028.002.055.006.082.009l.128.016c.029.004.058.008.087.014.041.006.081.014.122.021l.087.018a4.084 4.084 0 0 1 .321.08l.082.024.12.039.075.026.13.05.061.024c.062.026.125.053.186.082l.013.006c.057.027.112.055.168.084l.059.033.116.065.068.041.104.065.069.046c.033.023.065.044.097.068l.069.05.093.071.066.052c.031.025.061.051.09.077l.062.054.09.084.056.053.096.099.043.044c.045.048.089.098.132.148l.016.02c.037.044.073.089.109.135l.04.055.077.105.044.065.066.101.043.071.059.101.041.074.054.103.038.075.05.108c.011.025.023.049.033.075.017.038.032.077.047.116a2.087 2.087 0 0 1 .075.205l.019.056c.02.064.039.129.056.195l.009.034c.014.055.027.109.039.164l.014.071.02.105h2.963a.263.263 0 0 0 .266-.26v-2.946h-1.124v-1.406h1.124v-1.806c0-.851-.523-1.606-1.333-1.922l-2.697-1.052H30.031v9.392zm0-10.798h9.257l-2.598-5.939a1.84 1.84 0 0 0-1.692-1.09h-4.967v7.03zM11.789 30.594c1.637 0 2.969-1.299 2.969-2.896s-1.332-2.896-2.969-2.896c-.051 0-.102.001-.153.004-1.364.067-2.488 1.038-2.756 2.309a2.812 2.812 0 0 0-.061.583c0 1.597 1.332 2.896 2.969 2.896zM1.441 22.383h1.124v1.406H1.441v3.131c0 .041.035.075.077.075h5.92l.02-.104.014-.072c.012-.054.024-.107.038-.16l.009-.038a4.26 4.26 0 0 1 .056-.193l.02-.058.046-.132.028-.072.046-.114a2.049 2.049 0 0 1 .084-.182l.038-.076.054-.102.042-.074.059-.1a2.156 2.156 0 0 1 .11-.171 1.08 1.08 0 0 1 .044-.066l.076-.104.042-.057.106-.132a3.757 3.757 0 0 1 .15-.171l.043-.045c.032-.033.063-.066.096-.098l.056-.053.089-.083.062-.055c.029-.025.059-.051.09-.075l.066-.053.092-.071.069-.05.096-.067.07-.047c.034-.023.069-.044.103-.065l.069-.042c.038-.023.077-.044.116-.065.02-.011.04-.023.061-.033.055-.029.11-.057.167-.083l.014-.007c.061-.029.123-.056.186-.082l.061-.024.13-.05.076-.026c.039-.014.079-.027.119-.039l.082-.024c.039-.011.078-.023.118-.033.028-.007.056-.015.085-.021l.118-.026.087-.018c.04-.007.081-.015.122-.021l.086-.014.128-.016.082-.009.143-.011.07-.005a3.893 3.893 0 0 1 .502.005c.048.003.096.006.143.011.028.002.055.006.082.009l.128.016c.029.004.058.008.086.014.041.006.081.014.122.021l.087.018a4.084 4.084 0 0 1 .321.08l.082.024c.04.012.08.026.119.039l.076.026.13.05.061.024c.062.026.124.053.186.082l.014.007c.056.026.112.054.167.083l.06.033.116.065.069.042c.035.021.069.042.103.065l.07.047c.032.022.065.044.096.067l.069.05.092.071c.023.017.044.035.066.053.031.025.061.05.09.076l.062.054.09.084.056.053.096.098.043.044c.045.048.089.098.132.148l.017.021c.036.044.073.088.107.134l.042.055.077.105.044.066c.023.033.044.066.066.1l.044.071.059.101.041.074.055.103a2.6 2.6 0 0 1 .087.183 2.343 2.343 0 0 1 .08.191l.028.071c.017.045.032.09.047.135l.019.055c.02.064.039.129.057.195l.007.031c.014.056.028.111.04.168l.013.069.021.106h12.453V6.106c0-.388.323-.703.721-.703h10.419c.018 0 .073 0 .107-.062s.004-.106-.006-.12l-2.255-3.3a1.18 1.18 0 0 0-.977-.51H17.784a.397.397 0 0 0-.278.112l-1.192 1.163a1.845 1.845 0 0 1-1.297.524H2.608c-.643 0-1.167.511-1.167 1.138v18.039z"/>
      <path d="M20.116 7.198h4.558c.921 0 1.67.731 1.67 1.629v15.046a.712.712 0 0 1-.721.703h-6.456a.712.712 0 0 1-.721-.703V8.827c-.001-.899.748-1.629 1.669-1.629zm-.229 15.972h5.015v-8.267h-5.015v8.267zm0-9.673h5.015V8.828a.226.226 0 0 0-.229-.223h-4.558c-.126 0-.229.1-.229.223l.001 4.669z"/>
    </symbol>
    <symbol id="icon-gas" viewBox="0 0 32 32">
      <path d="M25.072 13.991c-.368-.453-.816-.846-1.232-1.239-1.072-.907-2.288-1.556-3.311-2.508-2.384-2.206-2.912-5.848-1.392-8.644-1.52.348-2.848 1.133-3.983 1.995-4.143 3.143-5.775 8.689-3.823 13.449.064.151.128.302.128.499 0 .332-.24.635-.56.756-.368.151-.752.06-1.056-.181a.901.901 0 0 1-.224-.257c-1.808-2.161-2.096-5.259-.88-7.737-2.672 2.055-4.127 5.531-3.919 8.81.096.756.192 1.511.464 2.267.224.907.656 1.813 1.136 2.614 1.728 2.614 4.719 4.488 7.935 4.866 3.423.408 7.087-.181 9.71-2.418 2.927-2.508 3.951-6.528 2.448-9.974l-.208-.393c-.336-.695-1.232-1.904-1.232-1.904zm-5.055 9.521c-.448.363-1.184.756-1.76.907-1.792.604-3.583-.242-4.639-1.239 1.904-.423 3.039-1.753 3.375-3.098.272-1.209-.24-2.206-.448-3.37-.192-1.118-.16-2.07.272-3.113.304.574.624 1.148 1.008 1.602 1.232 1.511 3.167 2.176 3.583 4.231.064.212.096.423.096.65.048 1.239-.528 2.599-1.488 3.43z"/>
    </symbol>
    
    <symbol id="icon-hob" viewBox="0 0 32 32">
      <path fill="none" stroke="#101828" style="stroke:var(--color1, #101828)" stroke-width="2.4" d="M12 6.667h16a1.335 1.335 0 0 1 1.334 1.334v17.333A1.335 1.335 0 0 1 28 26.668H12m0-20.001H4a1.33 1.33 0 0 0-1.333 1.334v17.333A1.333 1.333 0 0 0 4 26.668h8m0-20.001v20"/>
      <path fill="none" stroke="#101828" style="stroke:var(--color1, #101828)" stroke-linejoin="round" stroke-linecap="round" stroke-width="2.4" d="M7.333 11.333V14m17.334-3.333-8 11.333"/>
      <path d="M8.667 18A1.333 1.333 0 1 0 6 18a1.333 1.333 0 0 0 2.667 0zM8.667 22A1.333 1.333 0 1 0 6 22a1.333 1.333 0 0 0 2.667 0z"/>
    </symbol>
    <symbol id="icon-kitchen" viewBox="0 0 32 32">
      <path stroke-linejoin="round" stroke-linecap="round" stroke-width="2.4" d="M25.333 20V4c-6.421 6.125-6.697 11.092-6.667 16h6.667zm0 0v8H24v-4M10.667 5.333V28m-4-22.667v4a4.003 4.003 0 0 0 4 4 4.003 4.003 0 0 0 4-4v-4"/>
    </symbol>
    <symbol id="icon-location" viewBox="0 0 29 32">
      <path stroke-linejoin="round" stroke-linecap="round" stroke-width="2.4" d="M26.4 13.333c0 9.333-12 17.333-12 17.333s-12-8-12-17.333a12.003 12.003 0 0 1 12-12 12.003 12.003 0 0 1 12 12z"/>
      <path stroke-linejoin="round" stroke-linecap="round" stroke-width="2.4" d="M14.4 17.333a4 4 0 1 0 0-8 4 4 0 0 0 0 8z"/>
    </symbol>
    <symbol id="icon-microwave" viewBox="0 0 32 32">
      <path stroke-linejoin="round" stroke-linecap="round" stroke-width="2.24" d="M29.714 5.714H2.285a1.14 1.14 0 0 0-1.143 1.143v18.286a1.14 1.14 0 0 0 1.143 1.143h27.429a1.14 1.14 0 0 0 1.143-1.143V6.857a1.14 1.14 0 0 0-1.143-1.143z"/>
      <path stroke-linejoin="round" stroke-linecap="round" stroke-width="2.24" d="M25.143 11.428h1.143M25.143 16h1.143m-6.858-5.714H6.857a1.14 1.14 0 0 0-1.143 1.143v9.143a1.14 1.14 0 0 0 1.143 1.143h12.571a1.14 1.14 0 0 0 1.143-1.143v-9.143a1.14 1.14 0 0 0-1.143-1.143z"/>
    </symbol>
    <symbol id="icon-radio" viewBox="0 0 32 32">
      <path stroke-width="2.08" d="M2.667 18.667c0-5.028 0-7.543 1.563-9.104C5.791 8 8.306 8 13.334 8h5.333c5.028 0 7.543 0 9.104 1.563 1.563 1.561 1.563 4.076 1.563 9.104s0 7.543-1.563 9.104c-1.561 1.563-4.076 1.563-9.104 1.563h-5.333c-5.028 0-7.543 0-9.104-1.563-1.563-1.561-1.563-4.076-1.563-9.104z"/>
      <path stroke-width="2.08" d="M6.667 14.667A2.668 2.668 0 0 1 9.334 12h13.333a2.668 2.668 0 0 1 0 5.334H9.334a2.668 2.668 0 0 1-2.667-2.667zm5.333 8a2 2 0 1 1-4.001-.001 2 2 0 0 1 4.001.001z"/>
      <path stroke-linecap="round" stroke-width="2.08" d="M20 15.333v2m-2.667 5.334H24M8.667 8 20 2.667"/>
    </symbol>
    <symbol id="icon-route" viewBox="0 0 32 32">
      <path d="M6.667 4a2.667 2.667 0 1 0 0 5.334 2.667 2.667 0 0 0 0-5.334zM1.333 6.667a5.333 5.333 0 1 1 10.666 0 5.333 5.333 0 0 1-10.666 0zM25.333 22.667a2.667 2.667 0 1 0 0 5.334 2.667 2.667 0 0 0 0-5.334zM20 25.333a5.333 5.333 0 1 1 10.667 0 5.333 5.333 0 0 1-10.667 0z"/>
      <path d="M13.333 6.667c0-.736.597-1.333 1.333-1.333h8.4c4.13 0 5.62 5.404 1.987 7.429L9.58 21.567a1.295 1.295 0 0 0 .686 2.434h7.067a1.333 1.333 0 0 1 0 2.666h-7.067c-4.13 0-5.619-5.404-1.987-7.429l15.473-8.804A1.295 1.295 0 0 0 23.066 8h-8.4a1.333 1.333 0 0 1-1.333-1.333z"/>
    </symbol>
    <symbol id="icon-shower" viewBox="0 0 32 32">
      <path stroke-linejoin="round" stroke-linecap="round" stroke-width="2" d="m5.333 5.333 3.333 3.333M18 8.667a6.6 6.6 0 0 0-9.334 9.334M20 6.667 6.667 20m12 2.667v.013m-5.334-1.347v.013m4-4.013v.013m4-4.013v.013m-6.666 13.321v.013m8-8.013v.013m4-4.013v.013"/>
    </symbol>
    
    <symbol id="icon-toilet" viewBox="0 0 32 32">
      <path d="M24 4c1.939 0 3.269 1.647 4.04 3.313.761 1.653 1.224 3.811 1.287 6.145l.007.541v12.667a1.343 1.343 0 0 1-.409.962 1.352 1.352 0 0 1-.978.371l-.165-.019-3.781-.629-3.781.629a1.33 1.33 0 0 1-.483-.008l-.157-.041-3.579-1.193-3.579 1.193a1.327 1.327 0 0 1-1.135-.138 1.323 1.323 0 0 1-.61-.968l-.009-.159v-3.903c-.708.733-1.595 1.236-2.667 1.236-1.939 0-3.269-1.647-4.04-3.313-.819-1.78-1.293-4.145-1.293-6.687s.473-4.907 1.293-6.687c.735-1.592 1.981-3.164 3.78-3.303l.26-.011h16zm0 2.667H11.709c.12.213.229.429.329.647.821 1.78 1.295 4.145 1.295 6.687v10.817l2.245-.749c.274-.091.569-.091.843 0l3.687 1.229 3.673-.613c.144-.024.293-.024.437 0l2.448.409V14.001c0-2.245-.423-4.213-1.049-5.569C24.94 6.961 24.27 6.668 24 6.668zm-16 0c-.271 0-.94.293-1.617 1.764C5.756 9.787 5.334 11.755 5.334 14s.423 4.213 1.049 5.569C7.06 21.04 7.73 21.333 8 21.333s.94-.293 1.617-1.764c.627-1.356 1.049-3.324 1.049-5.569s-.423-4.213-1.049-5.569C8.94 6.96 8.27 6.667 8 6.667zm0 4.666c.736 0 1.333 1.193 1.333 2.667S8.736 16.667 8 16.667 6.667 15.474 6.667 14 7.264 11.333 8 11.333z"/>
    </symbol>
    <symbol id="icon-transmission" viewBox="0 0 32 32">
      <path stroke-linejoin="round" stroke-linecap="round" stroke-width="2.4" d="M22.667 14.667h2a2 2 0 0 0 0-4h-2v6.667m0 5.333V28H24a2.668 2.668 0 0 0 0-5.334h-1.333zM4 6.667a2.668 2.668 0 1 0 5.336 0 2.668 2.668 0 0 0-5.336 0z"/>
      <path stroke-linejoin="round" stroke-linecap="round" stroke-width="2.4" d="M6.667 9.333v4a1.335 1.335 0 0 0 1.334 1.334h4m-.001 0V24a1.33 1.33 0 0 0 1.334 1.333h4M12 14.667h5.333"/>
    </symbol>
    <symbol id="icon-tv" viewBox="0 0 32 32">
      <path stroke-linejoin="round" stroke-linecap="round" stroke-width="1.8" d="M24 26H8c-2.216 0-4-1.784-4-4V12c0-2.216 1.784-4 4-4h16c2.216 0 4 1.784 4 4v10c0 2.216-1.784 4-4 4zM12 30h8M16 8l6-6M16 8l-6-6"/>
    </symbol>
    <symbol id="icon-vanType" viewBox="0 0 46 32">
      <path d="M2.608 1.8h12.409c.105 0 .203-.04.278-.112L16.487.525a1.845 1.845 0 0 1 1.297-.524h18.817c.876 0 1.69.425 2.176 1.136l2.255 3.3c.32.468.349 1.067.077 1.564s-.8.805-1.377.805h-9.698v.956h4.967c1.317 0 2.501.763 3.018 1.945l2.908 6.65 2.548.994c1.36.531 2.24 1.797 2.24 3.227v6.158c0 .918-.766 1.666-1.708 1.666h-2.964c-.345 2.039-2.164 3.599-4.35 3.599s-4.005-1.561-4.35-3.599H16.14c-.345 2.039-2.164 3.599-4.35 3.599s-4.005-1.561-4.35-3.599H1.519c-.837 0-1.518-.664-1.518-1.481V4.345c0-1.403 1.17-2.544 2.608-2.544zm34.084 28.794c1.637 0 2.969-1.299 2.969-2.896s-1.332-2.896-2.969-2.896c-1.637 0-2.969 1.299-2.969 2.896s1.332 2.896 2.969 2.896zm-6.658-3.599h2.307l.02-.105.014-.071c.012-.055.025-.11.039-.164.003-.011.005-.023.009-.034a3.34 3.34 0 0 1 .057-.195l.019-.056a5.274 5.274 0 0 1 .122-.321l.033-.075c.016-.037.032-.072.05-.108l.038-.075.054-.103.041-.074.059-.101.043-.071.066-.101.044-.065.077-.105.04-.055.109-.135.016-.02c.043-.051.087-.1.132-.148l.043-.044.096-.099.056-.053.09-.084.062-.054.09-.077.066-.052.093-.071a1.22 1.22 0 0 1 .069-.05l.097-.068.069-.046c.034-.023.069-.044.104-.065l.068-.041c.038-.023.077-.044.116-.065l.059-.033.168-.084.013-.006c.061-.029.123-.056.186-.082l.061-.024.13-.05.075-.026.12-.039.082-.024c.039-.011.078-.023.118-.033.028-.007.056-.015.085-.021l.118-.026.087-.018c.04-.007.081-.015.122-.021l.086-.014.128-.016.082-.009.143-.011.07-.005a3.893 3.893 0 0 1 .502.005c.048.003.096.006.143.011.028.002.055.006.082.009l.128.016c.029.004.058.008.087.014.041.006.081.014.122.021l.087.018a4.084 4.084 0 0 1 .321.08l.082.024.12.039.075.026.13.05.061.024c.062.026.125.053.186.082l.013.006c.057.027.112.055.168.084l.059.033.116.065.068.041.104.065.069.046c.033.023.065.044.097.068l.069.05.093.071.066.052c.031.025.061.051.09.077l.062.054.09.084.056.053.096.099.043.044c.045.048.089.098.132.148l.016.02c.037.044.073.089.109.135l.04.055.077.105.044.065.066.101.043.071.059.101.041.074.054.103.038.075.05.108c.011.025.023.049.033.075.017.038.032.077.047.116a2.087 2.087 0 0 1 .075.205l.019.056c.02.064.039.129.056.195l.009.034c.014.055.027.109.039.164l.014.071.02.105h2.963a.263.263 0 0 0 .266-.26v-2.946h-1.124v-1.406h1.124v-1.806c0-.851-.523-1.606-1.333-1.922l-2.697-1.052H30.031v9.392zm0-10.798h9.257l-2.598-5.939a1.84 1.84 0 0 0-1.692-1.09h-4.967v7.03zM11.789 30.594c1.637 0 2.969-1.299 2.969-2.896s-1.332-2.896-2.969-2.896c-.051 0-.102.001-.153.004-1.364.067-2.488 1.038-2.756 2.309a2.812 2.812 0 0 0-.061.583c0 1.597 1.332 2.896 2.969 2.896zM1.441 22.383h1.124v1.406H1.441v3.131c0 .041.035.075.077.075h5.92l.02-.104.014-.072c.012-.054.024-.107.038-.16l.009-.038a4.26 4.26 0 0 1 .056-.193l.02-.058.046-.132.028-.072.046-.114a2.049 2.049 0 0 1 .084-.182l.038-.076.054-.102.042-.074.059-.1a2.156 2.156 0 0 1 .11-.171 1.08 1.08 0 0 1 .044-.066l.076-.104.042-.057.106-.132a3.757 3.757 0 0 1 .15-.171l.043-.045c.032-.033.063-.066.096-.098l.056-.053.089-.083.062-.055c.029-.025.059-.051.09-.075l.066-.053.092-.071.069-.05.096-.067.07-.047c.034-.023.069-.044.103-.065l.069-.042c.038-.023.077-.044.116-.065.02-.011.04-.023.061-.033.055-.029.11-.057.167-.083l.014-.007c.061-.029.123-.056.186-.082l.061-.024.13-.05.076-.026c.039-.014.079-.027.119-.039l.082-.024c.039-.011.078-.023.118-.033.028-.007.056-.015.085-.021l.118-.026.087-.018c.04-.007.081-.015.122-.021l.086-.014.128-.016.082-.009.143-.011.07-.005a3.893 3.893 0 0 1 .502.005c.048.003.096.006.143.011.028.002.055.006.082.009l.128.016c.029.004.058.008.086.014.041.006.081.014.122.021l.087.018a4.084 4.084 0 0 1 .321.08l.082.024c.04.012.08.026.119.039l.076.026.13.05.061.024c.062.026.124.053.186.082l.014.007c.056.026.112.054.167.083l.06.033.116.065.069.042c.035.021.069.042.103.065l.07.047c.032.022.065.044.096.067l.069.05.092.071c.023.017.044.035.066.053.031.025.061.05.09.076l.062.054.09.084.056.053.096.098.043.044c.045.048.089.098.132.148l.017.021c.036.044.073.088.107.134l.042.055.077.105.044.066c.023.033.044.066.066.1l.044.071.059.101.041.074.055.103a2.6 2.6 0 0 1 .087.183 2.343 2.343 0 0 1 .08.191l.028.071c.017.045.032.09.047.135l.019.055c.02.064.039.129.057.195l.007.031c.014.056.028.111.04.168l.013.069.021.106h12.453V6.106c0-.388.323-.703.721-.703h10.419c.018 0 .073 0 .107-.062s.004-.106-.006-.12l-2.255-3.3a1.18 1.18 0 0 0-.977-.51H17.784a.397.397 0 0 0-.278.112l-1.192 1.163a1.845 1.845 0 0 1-1.297.524H2.608c-.643 0-1.167.511-1.167 1.138v18.039z"/>
      <path d="M5.536 7.198h8.814c1.019 0 1.848.809 1.848 1.802v4.1c0 .994-.829 1.802-1.848 1.802H5.535c-1.019 0-1.848-.809-1.848-1.802V9c.001-.994.83-1.802 1.848-1.802zM5.129 13.1c0 .218.182.396.406.396h8.814a.402.402 0 0 0 .406-.396V9a.402.402 0 0 0-.406-.396H5.534A.402.402 0 0 0 5.128 9l.001 4.1z"/>
    </symbol>
    <symbol id="icon-water" viewBox="0 0 32 32">
      <path stroke-miterlimit="10" stroke-width="2.4" d="M25 20c0 5.523-3.477 9-9 9s-9-3.477-9-9c0-5.927 6.452-13.928 8.431-16.242a.763.763 0 0 1 .57-.263.744.744 0 0 1 .57.263c1.978 2.314 8.43 10.316 8.43 16.242z"/>
      <path stroke-linejoin="round" stroke-linecap="round" stroke-width="2.4" d="M21.5 20.5A4.5 4.5 0 0 1 17 25"/>
    </symbol>
  </defs>
</svg>
